<svg width="32" height="32" viewBox="0 0 32 32" fill="none" xmlns="http://www.w3.org/2000/svg">
<path opacity="0.2" d="M18.3751 22.8829C17.5858 22.9616 16.7932 23.0008 16.0001 23.0004C15.2069 23.0008 14.4143 22.9616 13.6251 22.8829L12.3438 26.3417C12.2948 26.4723 12.2195 26.5916 12.1225 26.6919C12.0255 26.7923 11.909 26.8717 11.78 26.9251C11.6511 26.9785 11.5126 27.0049 11.373 27.0026C11.2335 27.0003 11.0959 26.9693 10.9688 26.9117L2.59381 23.1992C2.37817 23.1044 2.20289 22.9367 2.09884 22.7254C1.9948 22.5141 1.96867 22.2728 2.02506 22.0442L5.72131 7.50041C5.76951 7.30926 5.8726 7.13639 6.01786 7.00312C6.16313 6.86984 6.34422 6.782 6.53881 6.75041L11.0463 6.01041C11.2974 5.96774 11.5553 6.02124 11.7686 6.16024C11.982 6.29924 12.1351 6.51353 12.1976 6.76041L12.8226 9.21416C14.9332 8.93249 17.0719 8.93249 19.1826 9.21416L19.8076 6.76041C19.87 6.51353 20.0231 6.29924 20.2365 6.16024C20.4499 6.02124 20.7078 5.96774 20.9588 6.01041L25.4613 6.75041C25.6559 6.782 25.837 6.86984 25.9823 7.00312C26.1275 7.13639 26.2306 7.30926 26.2788 7.50041L29.9701 22.0467C30.0264 22.2753 30.0003 22.5166 29.8963 22.7279C29.7922 22.9391 29.6169 23.1069 29.4013 23.2017L21.0263 26.9142C20.8992 26.9718 20.7616 27.0028 20.6221 27.0051C20.4825 27.0074 20.344 26.981 20.2151 26.9276C20.0862 26.8742 19.9696 26.7948 19.8726 26.6944C19.7756 26.5941 19.7003 26.4748 19.6513 26.3442L18.3751 22.8829Z" fill="#343330"/>
<path d="M11.5 19C12.3284 19 13 18.3284 13 17.5C13 16.6716 12.3284 16 11.5 16C10.6716 16 10 16.6716 10 17.5C10 18.3284 10.6716 19 11.5 19Z" fill="#343330"/>
<path d="M20.5 19C21.3284 19 22 18.3284 22 17.5C22 16.6716 21.3284 16 20.5 16C19.6716 16 19 16.6716 19 17.5C19 18.3284 19.6716 19 20.5 19Z" fill="#343330"/>
<path d="M19.18 9.21123L19.805 6.75748C19.8674 6.5106 20.0206 6.29631 20.2339 6.15731C20.4473 6.01831 20.7052 5.96481 20.9562 6.00748L25.4613 6.74998C25.6558 6.78157 25.8369 6.86941 25.9822 7.00269C26.1275 7.13596 26.2305 7.30883 26.2787 7.49998L29.97 22.0462C30.0264 22.2749 30.0003 22.5161 29.8962 22.7274C29.7922 22.9387 29.6169 23.1065 29.4013 23.2012L21.0263 26.9137C20.8992 26.9714 20.7616 27.0024 20.622 27.0047C20.4825 27.007 20.344 26.9806 20.215 26.9272C20.0861 26.8737 19.9695 26.7944 19.8726 26.694C19.7756 26.5936 19.7002 26.4744 19.6513 26.3437L18.375 22.8825" stroke="#343330" strokeWidth="2" strokeLinecap="round" strokeLinejoin="round"/>
<path d="M12.8199 9.21123L12.1949 6.75748C12.1325 6.5106 11.9794 6.29631 11.766 6.15731C11.5526 6.01831 11.2947 5.96481 11.0437 6.00748L6.53869 6.74998C6.3441 6.78157 6.16301 6.86941 6.01775 7.00269C5.87248 7.13596 5.76939 7.30883 5.72119 7.49998L2.02994 22.0437C1.97355 22.2724 1.99968 22.5136 2.10373 22.7249C2.20777 22.9362 2.38306 23.104 2.59869 23.1987L10.9737 26.9112C11.1008 26.9689 11.2384 26.9999 11.3779 27.0022C11.5175 27.0045 11.656 26.9781 11.7849 26.9247C11.9138 26.8712 12.0304 26.7919 12.1274 26.6915C12.2244 26.5911 12.2997 26.4719 12.3487 26.3412L13.6249 22.8825" stroke="#343330" strokeWidth="2" strokeLinecap="round" strokeLinejoin="round"/>
<path d="M10 9.78903C11.955 9.25552 13.9735 8.99018 16 9.00028C18.0265 8.99018 20.045 9.25552 22 9.78903" stroke="#343330" strokeWidth="2" strokeLinecap="round" strokeLinejoin="round"/>
<path d="M22 22.2109C20.045 22.7444 18.0265 23.0098 16 22.9997C13.9735 23.0098 11.955 22.7444 10 22.2109" stroke="#343330" strokeWidth="2" strokeLinecap="round" strokeLinejoin="round"/>
</svg>
