<svg width="32" height="32" viewBox="0 0 32 32" fill="none" xmlns="http://www.w3.org/2000/svg">
<path d="M11.5 19C12.6046 19 13.5 18.1046 13.5 17C13.5 15.8954 12.6046 15 11.5 15C10.3954 15 9.5 15.8954 9.5 17C9.5 18.1046 10.3954 19 11.5 19Z" fill="#343330"/>
<path d="M20.5 19C21.6046 19 22.5 18.1046 22.5 17C22.5 15.8954 21.6046 15 20.5 15C19.3954 15 18.5 15.8954 18.5 17C18.5 18.1046 19.3954 19 20.5 19Z" fill="#343330"/>
<path d="M18.9338 10.1787L19.8025 6.75748C19.865 6.5106 20.0181 6.29631 20.2315 6.15731C20.4448 6.01831 20.7027 5.96481 20.9538 6.00748L25.4613 6.74998C25.6559 6.78157 25.837 6.86941 25.9822 7.00269C26.1275 7.13596 26.2306 7.30883 26.2788 7.49998L29.97 22.0462C30.0264 22.2749 30.0003 22.5161 29.8963 22.7274C29.7922 22.9387 29.6169 23.1065 29.4013 23.2012L21.0263 26.9137C20.8992 26.9714 20.7616 27.0024 20.6221 27.0047C20.4825 27.007 20.344 26.9806 20.2151 26.9272C20.0862 26.8737 19.9696 26.7944 19.8726 26.694C19.7756 26.5936 19.7003 26.4744 19.6513 26.3437L18.2013 22.4" stroke="#343330" strokeWidth="3" strokeLinecap="round" strokeLinejoin="round"/>
<path d="M13.0662 10.1787L12.1912 6.75748C12.1288 6.5106 11.9756 6.29631 11.7623 6.15731C11.5489 6.01831 11.291 5.96481 11.0399 6.00748L6.53869 6.74998C6.3441 6.78157 6.16301 6.86941 6.01775 7.00269C5.87248 7.13596 5.76939 7.30883 5.72119 7.49998L2.02994 22.0437C1.97355 22.2724 1.99968 22.5136 2.10373 22.7249C2.20777 22.9362 2.38306 23.104 2.59869 23.1987L10.9737 26.9112C11.1008 26.9689 11.2384 26.9999 11.3779 27.0022C11.5175 27.0045 11.656 26.9781 11.7849 26.9247C11.9138 26.8712 12.0304 26.7919 12.1274 26.6915C12.2244 26.5911 12.2997 26.4719 12.3487 26.3412L13.8037 22.4" stroke="#343330" strokeWidth="3" strokeLinecap="round" strokeLinejoin="round"/>
<path d="M10.5 10.6552C12.2997 10.2129 14.1468 9.99298 16 10.0002C17.8532 9.99298 19.7003 10.2129 21.5 10.6552" stroke="#343330" strokeWidth="3" strokeLinecap="round" strokeLinejoin="round"/>
<path d="M21.5 21.8447C19.7003 22.2869 17.8532 22.5069 16 22.4997C14.1468 22.5069 12.2997 22.2869 10.5 21.8447" stroke="#343330" strokeWidth="3" strokeLinecap="round" strokeLinejoin="round"/>
</svg>
