<svg width="32" height="32" viewBox="0 0 32 32" fill="none" xmlns="http://www.w3.org/2000/svg">
<path opacity="0.2" d="M16 7C6 7 2 16 2 16C2 16 6 25 16 25C26 25 30 16 30 16C30 16 26 7 16 7ZM16 21C15.0111 21 14.0444 20.7068 13.2221 20.1573C12.3999 19.6079 11.759 18.827 11.3806 17.9134C11.0022 16.9998 10.9031 15.9945 11.0961 15.0245C11.289 14.0546 11.7652 13.1637 12.4645 12.4645C13.1637 11.7652 14.0546 11.289 15.0245 11.0961C15.9945 10.9031 16.9998 11.0022 17.9134 11.3806C18.827 11.759 19.6079 12.3999 20.1573 13.2221C20.7068 14.0444 21 15.0111 21 16C21 17.3261 20.4732 18.5979 19.5355 19.5355C18.5979 20.4732 17.3261 21 16 21Z" fill="#343330"/>
<path d="M6 5L26 27" stroke="#343330" stroke-width="2" stroke-linecap="round" stroke-linejoin="round"/>
<path d="M19.3637 19.6998C18.3824 20.5919 17.0869 21.0577 15.7622 20.9946C14.4375 20.9316 13.1921 20.3449 12.3 19.3636C11.4079 18.3823 10.9421 17.0868 11.0052 15.762C11.0682 14.4373 11.6549 13.1919 12.6362 12.2998" stroke="#343330" stroke-width="2" stroke-linecap="round" stroke-linejoin="round"/>
<path d="M16.9412 11.0889C18.0042 11.2924 18.9724 11.8354 19.7005 12.6363C20.4285 13.4371 20.877 14.4526 20.9787 15.5301" stroke="#343330" stroke-width="2" stroke-linecap="round" stroke-linejoin="round"/>
<path d="M26.0763 21.1375C28.8013 18.6975 30 16 30 16C30 16 26 7.00001 16 7.00001C15.1341 6.99883 14.2695 7.06907 13.415 7.21001" stroke="#343330" stroke-width="2" stroke-linecap="round" stroke-linejoin="round"/>
<path d="M9.25 8.5752C4.15375 11.1552 2 16.0002 2 16.0002C2 16.0002 6 25.0002 16 25.0002C18.3431 25.0186 20.657 24.4787 22.75 23.4252" stroke="#343330" stroke-width="2" stroke-linecap="round" stroke-linejoin="round"/>
</svg>
