<svg width="32" height="32" viewBox="0 0 32 32" fill="none" xmlns="http://www.w3.org/2000/svg">
<path d="M27.5288 13.8555L11.6763 25.0555" stroke="#343330" strokeWidth="2" strokeLinecap="round" strokeLinejoin="round"/>
<path d="M20.3237 25.0555L4.47119 13.8555" stroke="#343330" strokeWidth="2" strokeLinecap="round" strokeLinejoin="round"/>
<path d="M21.9188 12.0004L24.375 5.32787C24.4101 5.22777 24.4766 5.14171 24.5646 5.08254C24.6527 5.02338 24.7575 4.9943 24.8634 4.99965C24.9693 5.00499 25.0707 5.04448 25.1523 5.1122C25.234 5.17992 25.2915 5.27225 25.3163 5.37537L27.8025 14.8904C28.1208 16.0925 28.0655 17.3631 27.6442 18.5331C27.2229 19.7031 26.4554 20.7171 25.4438 21.4404L16.2863 27.9104C16.2037 27.9689 16.105 28.0003 16.0038 28.0003C15.9026 28.0003 15.8039 27.9689 15.7213 27.9104L6.56003 21.4404C5.54842 20.7171 4.78093 19.7031 4.35959 18.5331C3.93825 17.3631 3.88304 16.0925 4.20128 14.8904L6.68753 5.37537C6.7134 5.27365 6.77117 5.1829 6.85237 5.1164C6.93357 5.0499 7.03394 5.01116 7.13876 5.00585C7.24358 5.00054 7.34734 5.02894 7.43485 5.08689C7.52236 5.14484 7.589 5.22929 7.62503 5.32787L10.0813 12.0004H21.9188Z" stroke="#343330" strokeWidth="2" strokeLinecap="round" strokeLinejoin="round"/>
</svg>
