<svg width="32" height="32" viewBox="0 0 32 32" fill="none" xmlns="http://www.w3.org/2000/svg">
<path d="M28.04 14.2802C28.5073 13.1362 28.6635 11.889 28.4926 10.6651C28.3218 9.44129 27.83 8.28449 27.0673 7.31226C26.3046 6.34004 25.2981 5.58704 24.1501 5.12979C23.0021 4.67254 21.7535 4.52732 20.5312 4.7089C19.7737 3.73317 18.7716 2.97526 17.6264 2.51212C16.4813 2.04898 15.234 1.89711 14.0112 2.07192C12.7884 2.24674 11.6336 2.74201 10.6641 3.50746C9.69464 4.27291 8.94496 5.28127 8.49122 6.43015C7.26689 6.59774 6.10874 7.08646 5.13447 7.84664C4.1602 8.60681 3.40453 9.61136 2.94425 10.7582C2.48397 11.905 2.33548 13.1532 2.51388 14.3761C2.69229 15.5989 3.19121 16.7526 3.95997 17.7202C3.58483 18.6395 3.40956 19.6281 3.4458 20.6204C3.48204 21.6126 3.72897 22.5858 4.17017 23.4753C4.61138 24.3649 5.23678 25.1503 6.00484 25.7796C6.7729 26.4089 7.66605 26.8675 8.62497 27.1252C9.21934 27.2878 9.83249 27.3719 10.4487 27.3752C10.7905 27.3748 11.1319 27.3493 11.47 27.2989C12.2276 28.2743 13.2298 29.0318 14.3749 29.4947C15.5199 29.9576 16.767 30.1092 17.9896 29.9343C19.2122 29.7593 20.3668 29.2641 21.3361 28.4987C22.3054 27.7333 23.055 26.7251 23.5087 25.5764C24.733 25.4088 25.8912 24.9201 26.8655 24.1599C27.8397 23.3997 28.5954 22.3952 29.0557 21.2484C29.516 20.1015 29.6645 18.8533 29.4861 17.6305C29.3076 16.4077 28.8087 15.2539 28.04 14.2864V14.2802ZM18 17.1552L16 18.3102L14 17.1552V14.8452L16 13.6902L18 14.8452V17.1552ZM22.8562 6.8039C24.1163 7.14076 25.1949 7.95669 25.8619 9.07762C26.5288 10.1986 26.7313 11.5357 26.4262 12.8039C26.3075 12.7252 26.1875 12.6489 26.0625 12.5777L20.5 9.36015C20.3479 9.27238 20.1755 9.22618 20 9.22618C19.8244 9.22618 19.652 9.27238 19.5 9.36015L14 12.5364V10.2264L19.0625 7.3039C19.6304 6.97402 20.2581 6.75998 20.9093 6.67415C21.5605 6.58833 22.2222 6.63243 22.8562 6.8039ZM5.10622 10.8664C5.74365 9.75499 6.78576 8.93277 8.01497 8.5714C8.00622 8.7139 7.99997 8.8564 7.99997 9.00015V15.4227C7.99993 15.5982 8.04612 15.7707 8.13389 15.9228C8.22166 16.0748 8.34792 16.2011 8.49997 16.2889L14 19.4639L12 20.6252L6.93747 17.6964C5.7891 17.0333 4.95116 15.9413 4.60797 14.6604C4.26478 13.3795 4.44446 12.0148 5.10747 10.8664H5.10622ZM17 28.0002C15.7199 28.0036 14.4878 27.5133 13.56 26.6314C13.685 26.5677 13.81 26.5002 13.935 26.4277L19.5 23.2164C19.6518 23.1287 19.778 23.0026 19.8657 22.8508C19.9535 22.699 19.9998 22.5268 20 22.3514V16.0002L22 17.1552V23.0002C22 24.3262 21.4732 25.598 20.5355 26.5357C19.5978 27.4734 18.3261 28.0002 17 28.0002Z" fill="#343330"/>
</svg>
