<svg width="32" height="32" viewBox="0 0 32 32" fill="none" xmlns="http://www.w3.org/2000/svg">
<path opacity="0.2" d="M6.43753 18.5627C5.96073 18.2872 5.52413 17.9473 5.14003 17.5527C4.52893 18.7033 4.30891 20.0214 4.51321 21.3081C4.7175 22.5947 5.33501 23.7799 6.27243 24.6846C7.20985 25.5893 8.41624 26.1642 9.70933 26.3227C11.0024 26.4811 12.3119 26.2143 13.44 25.5627L19 22.3515V17.7327L12 21.774L6.43753 18.5627Z" fill="#343330"/>
<path opacity="0.2" d="M25.5625 13.4373L20 10.2261L16 12.5361L23 16.5773V22.9998C22.9993 23.5493 22.9232 24.0961 22.7738 24.6248C24.0741 24.5773 25.3238 24.1083 26.3344 23.2885C27.3449 22.4687 28.0616 21.3427 28.3763 20.0801C28.6911 18.8175 28.5868 17.4868 28.0793 16.2886C27.5717 15.0904 26.6884 14.0897 25.5625 13.4373Z" fill="#343330"/>
<path opacity="0.2" d="M13 17.7323V9.6486L18.5625 6.43735C19.0391 6.15963 19.5519 5.9493 20.0863 5.81235C19.3951 4.70782 18.3631 3.8583 17.1464 3.39218C15.9297 2.92607 14.5943 2.86869 13.3421 3.22873C12.0898 3.58877 10.9888 4.34665 10.2055 5.38783C9.42212 6.429 8.99898 7.69689 9 8.99985V15.4223L13 17.7323Z" fill="#343330"/>
<path d="M13 17.7323V9.64853L18.5625 6.43728C19.6906 5.78567 21.0001 5.51893 22.2932 5.67735C23.5863 5.83578 24.7927 6.41076 25.7301 7.31543C26.6675 8.22009 27.285 9.40528 27.4893 10.6919C27.6936 11.9786 27.4736 13.2967 26.8625 14.4473" stroke="#343330" stroke-width="2" stroke-linecap="round" stroke-linejoin="round"/>
<path d="M16 19.4637L9 15.4225V9C8.99979 7.69736 9.42352 6.43004 10.2072 5.38949C10.9908 4.34893 12.0918 3.59168 13.3439 3.23212C14.5959 2.87256 15.9309 2.93023 17.1473 3.39642C18.3636 3.86261 19.3953 4.71199 20.0863 5.81625" stroke="#343330" stroke-width="2" stroke-linecap="round" stroke-linejoin="round"/>
<path d="M19.0001 17.7325L12.0001 21.7738L6.43756 18.5625C5.3118 17.9103 4.42855 16.9098 3.92094 15.7118C3.41333 14.5139 3.30886 13.1834 3.62328 11.9209C3.93771 10.6584 4.65398 9.53232 5.66415 8.71238C6.67432 7.89243 7.92364 7.42306 9.22381 7.375" stroke="#343330" stroke-width="2" stroke-linecap="round" stroke-linejoin="round"/>
<path d="M19 14.2676V22.3513L13.4375 25.5626C12.3094 26.2142 10.9999 26.4809 9.70677 26.3225C8.41368 26.1641 7.20728 25.5891 6.26986 24.6844C5.33244 23.7798 4.71494 22.5946 4.51064 21.3079C4.30635 20.0213 4.52637 18.7031 5.13746 17.5526" stroke="#343330" stroke-width="2" stroke-linecap="round" stroke-linejoin="round"/>
<path d="M15.9999 12.5361L22.9999 16.5774V22.9999C23.0002 24.3025 22.5764 25.5698 21.7928 26.6104C21.0091 27.6509 19.9081 28.4082 18.6561 28.7678C17.4041 29.1273 16.069 29.0696 14.8527 28.6035C13.6363 28.1373 12.6047 27.2879 11.9137 26.1836" stroke="#343330" stroke-width="2" stroke-linecap="round" stroke-linejoin="round"/>
<path d="M13 14.2673L20 10.2261L25.5625 13.4373C26.6912 14.0883 27.5773 15.089 28.0868 16.2881C28.5964 17.4873 28.7019 18.8197 28.3871 20.084C28.0724 21.3484 27.3547 22.476 26.3424 23.2963C25.3302 24.1166 24.0784 24.5852 22.7763 24.6311" stroke="#343330" stroke-width="2" stroke-linecap="round" stroke-linejoin="round"/>
</svg>
