<svg width="32" height="32" viewBox="0 0 32 32" fill="none" xmlns="http://www.w3.org/2000/svg">
<path d="M13.5 17.4435V9.35978L18.5625 6.43728C19.6906 5.78567 21.0001 5.51893 22.2932 5.67735C23.5863 5.83578 24.7927 6.41076 25.7301 7.31543C26.6675 8.22009 27.285 9.40528 27.4893 10.6919C27.6936 11.9786 27.4736 13.2967 26.8625 14.4473" stroke="#343330" strokeWidth="3" strokeLinecap="round" strokeLinejoin="round"/>
<path d="M16 18.8862L9 14.845V9C8.99979 7.69736 9.42352 6.43004 10.2072 5.38949C10.9908 4.34893 12.0918 3.59168 13.3439 3.23212C14.5959 2.87256 15.9309 2.93023 17.1473 3.39642C18.3636 3.86261 19.3953 4.71199 20.0863 5.81625" stroke="#343330" strokeWidth="3" strokeLinecap="round" strokeLinejoin="round"/>
<path d="M18.5001 17.4438L11.5001 21.485L6.43756 18.5625C5.3118 17.9103 4.42855 16.9098 3.92094 15.7118C3.41333 14.5139 3.30886 13.1834 3.62328 11.9209C3.93771 10.6584 4.65398 9.53232 5.66415 8.71238C6.67432 7.89243 7.92364 7.42306 9.22381 7.375" stroke="#343330" strokeWidth="3" strokeLinecap="round" strokeLinejoin="round"/>
<path d="M18.5 14.5562V22.6399L13.4375 25.5624C12.3094 26.214 10.9999 26.4808 9.70677 26.3223C8.41368 26.1639 7.20728 25.5889 6.26986 24.6843C5.33244 23.7796 4.71494 22.5944 4.51064 21.3078C4.30635 20.0211 4.52637 18.7029 5.13746 17.5524" stroke="#343330" strokeWidth="3" strokeLinecap="round" strokeLinejoin="round"/>
<path d="M15.9999 13.1138L22.9999 17.155V23C23.0002 24.3027 22.5764 25.57 21.7928 26.6105C21.0091 27.6511 19.9081 28.4083 18.6561 28.7679C17.4041 29.1275 16.069 29.0698 14.8527 28.6036C13.6363 28.1374 12.6047 27.288 11.9137 26.1838" stroke="#343330" strokeWidth="3" strokeLinecap="round" strokeLinejoin="round"/>
<path d="M13.5 14.5564L20.5 10.5151L25.5625 13.4376C26.6912 14.0886 27.5773 15.0893 28.0868 16.2884C28.5964 17.4876 28.7019 18.82 28.3871 20.0844C28.0724 21.3487 27.3547 22.4763 26.3424 23.2966C25.3302 24.1169 24.0784 24.5855 22.7763 24.6314" stroke="#343330" strokeWidth="3" strokeLinecap="round" strokeLinejoin="round"/>
</svg>
